<svg width="69" height="68" viewBox="0 0 69 68" fill="none" xmlns="http://www.w3.org/2000/svg">
<path d="M35.5 29.1429C35.5 21.3203 35.6686 19.0211 35.7949 17.2976C35.8199 16.9562 35.8433 16.6373 35.8634 16.3026C35.9848 14.2791 35.985 11.7084 35.5214 0.503978C53.7825 0.782579 68.5 15.6726 68.5 34C68.5 52.3346 53.771 67.229 35.5 67.4963L35.5 67.4641L35.5 67.358L35.5 67.2523L35.5 67.147L35.5 67.0421L35.5 66.9375L35.5 66.8334L35.5 66.7295L35.5 66.6261L35.5 66.523L35.5 66.4203L35.5 66.3179L35.5 66.2159L35.5 66.1143L35.5 66.013L35.5 65.9121L35.5 65.8115L35.5 65.7113L35.5 65.6115L35.5 65.5119L35.5 65.4128L35.5 65.314L35.5 65.2155L35.5 65.1174L35.5 65.0196L35.5 64.9221L35.5 64.825L35.5 64.7283L35.5 64.6318L35.5 64.5358L35.5 64.44L35.5 64.3446L35.5 64.2495L35.5 64.1547L35.5 64.0603L35.5 63.9662L35.5 63.8724L35.5 63.7789L35.5 63.6858L35.5 63.5929L35.5 63.5004L35.5 63.4082L35.5 63.3164L35.5 63.2248L35.5 63.1336L35.5 63.0426L35.5 62.952L35.5 62.8617L35.5 62.7717L35.5 62.682L35.5 62.5926L35.5 62.5035L35.5 62.4147L35.5 62.3262L35.5 62.2379L35.5 62.15L35.5 62.0624L35.5 61.9751L35.5 61.8881L35.5 61.8013L35.5 61.7149L35.5 61.6287L35.5 61.5428L35.5 61.4572L35.5 61.3719L35.5 61.2869L35.5 61.2021L35.5 61.1176L35.5 61.0334L35.5 60.9495L35.5 60.8658L35.5 60.7824L35.5 60.6993L35.5 60.6165L35.5 60.5339L35.5 60.4516L35.5 60.3695L35.5 60.2877L35.5 60.2062L35.5 60.1249L35.5 60.0439L35.5 59.9632L35.5 59.8827L35.5 59.8024L35.5 59.7224L35.5 59.6427L35.5 59.5632L35.5 59.4839L35.5 59.4049L35.5 59.3261L35.5 59.2476L35.5 59.1694L35.5 59.0913L35.5 59.0135L35.5 58.9359L35.5 58.8586L35.5 58.7815L35.5 58.7047L35.5 58.628L35.5 58.5516L35.5 58.4754L35.5 58.3995L35.5 58.3238L35.5 58.2483L35.5 58.173L35.5 58.0979L35.5 58.0231L35.5 57.9484L35.5 57.874L35.5 57.7998L35.5 57.7258L35.5 57.652L35.5 57.5785L35.5 57.5051L35.5 57.432L35.5 57.359L35.5 57.2863L35.5 57.2137L35.5 57.1414L35.5 57.0692L35.5 56.9973L35.5 56.9255L35.5 56.8539L35.5 56.7826L35.5 56.7114L35.5 56.6404L35.5 56.5696L35.5 56.499L35.5 56.4286L35.5 56.3583L35.5 56.2882L35.5 56.2184L35.5 56.1487L35.5 56.0791L35.5 56.0098L35.5 55.9406L35.5 55.8716L35.5 55.8027L35.5 55.7341L35.5 55.6656L35.5 55.5972L35.5 55.5291L35.5 55.4611L35.5 55.3932L35.5 55.3256L35.5 55.258L35.5 55.1907L35.5 55.1235L35.5 55.0564L35.5 54.9895L35.5 54.9227L35.5 54.8561L35.5 54.7897L35.5 54.7234L35.5 54.6572L35.5 54.5912L35.5 54.5253L35.5 54.4596L35.5 54.394L35.5 54.3285L35.5 54.2632L35.5 54.198L35.5 54.133L35.5 54.0681L35.5 54.0033L35.5 53.9386L35.5 53.8741L35.5 53.8097L35.5 53.7454L35.5 53.6812L35.5 53.6172L35.5 53.5532L35.5 53.4894L35.5 53.4257L35.5 53.3622L35.5 53.2987L35.5 53.2354L35.5 53.1721L35.5 53.109L35.5 53.046L35.5 52.983L35.5 52.9202L35.5 52.8575L35.5 52.7949L35.5 52.7324L35.5 52.67L35.5 52.6077L35.5 52.5455L35.5 52.4833L35.5 52.4213L35.5 52.3594L35.5 52.2975L35.5 52.2357L35.5 52.174L35.5 52.1125L35.5 52.0509L35.5 51.9895L35.5 51.9282L35.5 51.8669L35.5 51.8057L35.5 51.7446L35.5 51.6835L35.5 51.6225L35.5 51.5616L35.5 51.5008L35.5 51.44L35.5 51.3793L35.5 51.3187L35.5 51.2581L35.5 51.1976L35.5 51.1371L35.5 51.0767L35.5 51.0164L35.5 50.9561L35.5 50.8959L35.5 50.8357L35.5 50.7756L35.5 50.7155L35.5 50.6555L35.5 50.5955L35.5 50.5356L35.5 50.4757L35.5 50.4159L35.5 50.356L35.5 50.2963L35.5 50.2365L35.5 50.1768L35.5 50.1172L35.5 50.0576L35.5 49.998L35.5 49.9384L35.5 49.8788L35.5 49.8193L35.5 49.7598L35.5 49.7004L35.5 49.6409L35.5 49.5815L35.5 49.5221L35.5 49.4627L35.5 49.4034L35.5 49.344L35.5 49.2847L35.5 49.2253L35.5 49.166L35.5 49.1067L35.5 49.0474L35.5 48.9881L35.5 48.9288L35.5 48.8695L35.5 48.8102L35.5 48.7509L35.5 48.6916L35.5 48.6323L35.5 48.573L35.5 48.5137L35.5 48.4544L35.5 48.3951L35.5 48.3357L35.5 48.2764L35.5 48.217L35.5 48.1576L35.5 48.0982L35.5 48.0388L35.5 47.9794L35.5 47.9199L35.5 47.8604L35.5 47.8009L35.5 47.7414L35.5 47.6818L35.5 47.6222L35.5 47.5626L35.5 47.503L35.5 47.4433L35.5 47.3835L35.5 47.3238L35.5 47.264L35.5 47.2041L35.5 47.1442L35.5 47.0843L35.5 47.0243L35.5 46.9643L35.5 46.9043L35.5 46.8441L35.5 46.784L35.5 46.7238L35.5 46.6635L35.5 46.6032L35.5 46.5428L35.5 46.4823L35.5 46.4218L35.5 46.3613L35.5 46.3006L35.5 46.24L35.5 46.1792L35.5 46.1184L35.5 46.0575L35.5 45.9965L35.5 45.9355L35.5 45.8744L35.5 45.8132L35.5 45.7519L35.5 45.6906L35.5 45.6292L35.5 45.5677L35.5 45.5061L35.5 45.4444L35.5 45.3827L35.5 45.3208L35.5 45.2589L35.5 45.1969L35.5 45.1348L35.5 45.0726L35.5 45.0103L35.5 44.9479L35.5 44.8854L35.5 44.8228L35.5 44.7601L35.5 44.6973L35.5 44.6344L35.5 44.5714L35.5 44.5083L35.5 44.4451L35.5 44.3817L35.5 44.3183L35.5 44.2547L35.5 44.1911L35.5 44.1273L35.5 44.0634L35.5 43.9993L35.5 43.9352L35.5 43.8709L35.5 43.8065L35.5 43.742L35.5 43.6774L35.5 43.6126L35.5 43.5477L35.5 43.4827L35.5 43.4175L35.5 43.3522L35.5 43.2868L35.5 43.2212L35.5 43.1555L35.5 43.0897L35.5 43.0237L35.5 42.9575L35.5 42.8913L35.5 42.8248L35.5 42.7582L35.5 42.6915L35.5 42.6246L35.5 42.5576L35.5 42.4904L35.5 42.4231L35.5 42.3556L35.5 42.2879L35.5 42.2201L35.5 42.1522L35.5 42.084L35.5 42.0157L35.5 41.9472L35.5 41.8786L35.5 41.8098L35.5 41.7408L35.5 41.6717L35.5 41.6023L35.5 41.5328L35.5 41.4632L35.5 41.3933L35.5 41.3233L35.5 41.2531L35.5 41.1827L35.5 41.1121L35.5 41.0413L35.5 40.9704L35.5 40.8992L35.5 40.8279L35.5 40.7563L35.5 40.6846L35.5 40.6127L35.5 40.5406L35.5 40.4683L35.5 40.3958L35.5 40.323L35.5 40.2501L35.5 40.177L35.5 40.1037L35.5 40.0302L35.5 39.9564L35.5 39.8825L35.5 39.8083L35.5 39.7339L35.5 39.6593L35.5 39.5845L35.5 39.5095L35.5 39.4342L35.5 39.3588L35.5 39.2831L35.5 39.2072L35.5 39.131L35.5 39.0547L35.5 38.9781L35.5 38.9012L35.5 38.8242L35.5 38.7469L35.5 38.6694L35.5 38.5916L35.5 38.5136L35.5 38.4354L35.5 38.3569L35.5 38.2782L35.5 38.1992L35.5 38.12L35.5 38.0406L35.5 37.9608L35.5 37.8809L35.5 37.8007L35.5 37.7202L35.5 37.6395L35.5 37.5585L35.5 37.4773L35.5 37.3958L35.5 37.3141L35.5 37.2321L35.5 37.1498L35.5 37.0673L35.5 36.9845L35.5 36.9014L35.5 36.8181L35.5 36.7345L35.5 36.6506L35.5 36.5664L35.5 36.482L35.5 36.3973L35.5 36.3123L35.5 36.227L35.5 36.1415L35.5 36.0556L35.5 35.9695L35.5 35.8831L35.5 35.7964L35.5 35.7094L35.5 35.6221L35.5 35.5346L35.5 35.4467L35.5 35.3586L35.5 35.2701L35.5 35.1814L35.5 35.0923L35.5 35.003L35.5 34.9133L35.5 34.8233L35.5 34.7331L35.5 34.6425L35.5 34.5516L35.5 34.4604L35.5 34.3689L35.5 34.2771L35.5 34.185L35.5 34.0925L35.5 33.9998L35.5 33.9067L35.5 33.8133L35.5 33.7195L35.5 33.6255L35.5 33.5311L35.5 33.4364L35.5 33.3413L35.5 33.246L35.5 33.1503L35.5 33.0542L35.5 32.9579L35.5 32.8612L35.5 32.7641L35.5 32.6667L35.5 32.569L35.5 32.4709L35.5 32.3725L35.5 32.2738L35.5 32.1747L35.5 32.0752L35.5 31.9754L35.5 31.8753L35.5 31.7747L35.5 31.6739L35.5 31.5727L35.5 31.4711L35.5 31.3692L35.5 31.2669L35.5 31.1642L35.5 31.0612L35.5 30.9578L35.5 30.854L35.5 30.7499L35.5 30.6454L35.5 30.5406L35.5 30.4353L35.5 30.3297L35.5 30.2237L35.5 30.1174L35.5 30.0106L35.5 29.9035L35.5 29.796L35.5 29.6881L35.5 29.5798L35.5 29.4712L35.5 29.3621L35.5 29.2527L35.5 29.1429Z" fill="#3A3E54" stroke="#3A3E54"/>
<path d="M34.4857 38.8571C34.4857 46.6797 34.3172 48.979 34.1908 50.7024C34.1658 51.0439 34.1424 51.3627 34.1223 51.6974C34.0009 53.721 34.0007 56.2916 34.4644 67.496C16.2032 67.2174 1.48572 52.3274 1.48572 34C1.48572 15.6654 16.2147 0.770972 34.4857 0.503655V0.535952V0.642003V0.747678V0.852978V0.957905V1.06246V1.16665V1.27046V1.37391V1.477V1.57972V1.68207V1.78407V1.88571V1.98699V2.08791V2.18848V2.28869V2.38855V2.48807V2.58723V2.68604V2.78451V2.88264V2.98042V3.07786V3.17497V3.27173V3.36816V3.46425V3.56001V3.65543V3.75053V3.84529V3.93973V4.03385V4.12763V4.2211V4.31424V4.40707V4.49957V4.59176V4.68363V4.77519V4.86644V4.95737V5.048V5.13832V5.22833V5.31804V5.40744V5.49654V5.58535V5.67385V5.76206V5.84997V5.93758V6.02491V6.11194V6.19868V6.28514V6.37131V6.45719V6.54279V6.62811V6.71315V6.7979V6.88239V6.96659V7.05052V7.13418V7.21757V7.30068V7.38353V7.46611V7.54843V7.63048V7.71227V7.7938V7.87507V7.95608V8.03684V8.11734V8.19759V8.27759V8.35734V8.43683V8.51609V8.59509V8.67385V8.75237V8.83065V8.90869V8.98649V9.06406V9.14139V9.21848V9.29535V9.37198V9.44839V9.52457V9.60052V9.67625V9.75175V9.82703V9.9021V9.97695V10.0516V10.126V10.2002V10.2742V10.348V10.4215V10.4949V10.568V10.641V10.7137V10.7863V10.8586V10.9308V11.0027V11.0745V11.1461V11.2174V11.2886V11.3596V11.4304V11.501V11.5714V11.6417V11.7118V11.7816V11.8513V11.9209V11.9902V12.0594V12.1284V12.1973V12.2659V12.3344V12.4028V12.4709V12.5389V12.6068V12.6744V12.742V12.8093V12.8765V12.9436V13.0105V13.0773V13.1439V13.2103V13.2766V13.3428V13.4088V13.4747V13.5404V13.606V13.6715V13.7368V13.802V13.867V13.9319V13.9967V14.0614V14.1259V14.1903V14.2546V14.3188V14.3828V14.4468V14.5106V14.5743V14.6378V14.7013V14.7646V14.8279V14.891V14.954V15.017V15.0798V15.1425V15.2051V15.2676V15.33V15.3923V15.4545V15.5167V15.5787V15.6407V15.7025V15.7643V15.826V15.8876V15.9491V16.0105V16.0719V16.1331V16.1943V16.2554V16.3165V16.3775V16.4384V16.4992V16.56V16.6207V16.6813V16.7419V16.8024V16.8629V16.9233V16.9836V17.0439V17.1041V17.1643V17.2244V17.2845V17.3445V17.4045V17.4644V17.5243V17.5842V17.644V17.7037V17.7635V17.8232V17.8828V17.9424V18.002V18.0616V18.1212V18.1807V18.2402V18.2996V18.3591V18.4185V18.4779V18.5373V18.5966V18.656V18.7153V18.7747V18.834V18.8933V18.9526V19.0119V19.0712V19.1305V19.1898V19.2491V19.3084V19.3677V19.427V19.4863V19.5456V19.6049V19.6643V19.7236V19.783V19.8424V19.9018V19.9612V20.0206V20.0801V20.1396V20.1991V20.2586V20.3182V20.3778V20.4374V20.4971V20.5567V20.6165V20.6762V20.736V20.7959V20.8558V20.9157V20.9757V21.0357V21.0957V21.1559V21.216V21.2762V21.3365V21.3968V21.4572V21.5177V21.5782V21.6387V21.6994V21.76V21.8208V21.8816V21.9425V22.0035V22.0645V22.1256V22.1868V22.2481V22.3094V22.3708V22.4323V22.4939V22.5556V22.6173V22.6792V22.7411V22.8031V22.8652V22.9274V22.9897V23.0521V23.1146V23.1772V23.2399V23.3027V23.3656V23.4286V23.4917V23.5549V23.6183V23.6817V23.7453V23.8089V23.8727V23.9366V24.0007V24.0648V24.1291V24.1935V24.258V24.3226V24.3874V24.4523V24.5173V24.5825V24.6478V24.7132V24.7788V24.8445V24.9103V24.9763V25.0425V25.1088V25.1752V25.2418V25.3085V25.3754V25.4424V25.5096V25.5769V25.6444V25.7121V25.7799V25.8478V25.916V25.9843V26.0528V26.1214V26.1902V26.2592V26.3283V26.3977V26.4672V26.5368V26.6067V26.6767V26.7469V26.8173V26.8879V26.9587V27.0296V27.1008V27.1721V27.2437V27.3154V27.3873V27.4594V27.5317V27.6042V27.677V27.7499V27.823V27.8963V27.9699V28.0436V28.1175V28.1917V28.2661V28.3407V28.4155V28.4905V28.5658V28.6412V28.7169V28.7928V28.869V28.9453V29.0219V29.0988V29.1758V29.2531V29.3306V29.4084V29.4864V29.5646V29.6431V29.7218V29.8008V29.88V29.9595V30.0392V30.1191V30.1993V30.2798V30.3605V30.4415V30.5227V30.6042V30.6859V30.7679V30.8502V30.9327V31.0155V31.0986V31.1819V31.2656V31.3494V31.4336V31.518V31.6027V31.6877V31.773V31.8585V31.9444V32.0305V32.1169V32.2036V32.2906V32.3779V32.4654V32.5533V32.6414V32.7299V32.8186V32.9077V32.997V33.0867V33.1767V33.2669V33.3575V33.4484V33.5396V33.6311V33.7229V33.815V33.9075V34.0003V34.0933V34.1868V34.2805V34.3745V34.4689V34.5636V34.6587V34.754V34.8497V34.9458V35.0421V35.1389V35.2359V35.3333V35.431V35.5291V35.6275V35.7262V35.8253V35.9248V36.0246V36.1247V36.2253V36.3261V36.4273V36.5289V36.6308V36.7331V36.8358V36.9388V37.0422V37.146V37.2501V37.3546V37.4594V37.5647V37.6703V37.7763V37.8826V37.9894V38.0965V38.204V38.3119V38.4202V38.5288V38.6379V38.7473V38.8571Z" fill="#3A3E54" stroke="#949AA8"/>
<circle cx="34.9857" cy="34" r="33.0286" fill="#3A3E54"/>
</svg>
